<svg xmlns="http://www.w3.org/2000/svg" viewBox="0 0 900 680" role="img" aria-labelledby="title desc">
  <title id="title">Business operations concierge dashboard</title>
  <desc id="desc">A premium dark dashboard showing compliance, banking, licensing, operations, and consulting controls.</desc>
  <defs>
    <linearGradient id="panel" x1="0" x2="1" y1="0" y2="1">
      <stop offset="0" stop-color="#181818"/>
      <stop offset="1" stop-color="#070707"/>
    </linearGradient>
    <linearGradient id="gold" x1="0" x2="1">
      <stop offset="0" stop-color="#8d6a24"/>
      <stop offset=".5" stop-color="#d6ad55"/>
      <stop offset="1" stop-color="#fff0b7"/>
    </linearGradient>
  </defs>
  <rect width="900" height="680" rx="34" fill="#080808"/>
  <rect x="70" y="70" width="760" height="540" rx="28" fill="url(#panel)" stroke="#d6ad55" stroke-opacity=".25"/>
  <rect x="104" y="108" width="692" height="62" rx="14" fill="#111" stroke="#fff" stroke-opacity=".08"/>
  <circle cx="136" cy="139" r="9" fill="#d6ad55"/><circle cx="164" cy="139" r="9" fill="#999"/><circle cx="192" cy="139" r="9" fill="#555"/>
  <rect x="104" y="206" width="204" height="144" rx="18" fill="#0d0d0d" stroke="#fff" stroke-opacity=".08"/>
  <rect x="348" y="206" width="204" height="144" rx="18" fill="#0d0d0d" stroke="#fff" stroke-opacity=".08"/>
  <rect x="592" y="206" width="204" height="144" rx="18" fill="#0d0d0d" stroke="#fff" stroke-opacity=".08"/>
  <rect x="104" y="386" width="448" height="174" rx="18" fill="#0d0d0d" stroke="#fff" stroke-opacity=".08"/>
  <rect x="592" y="386" width="204" height="174" rx="18" fill="#0d0d0d" stroke="#fff" stroke-opacity=".08"/>
  <g fill="none" stroke="#d6ad55" stroke-width="8" stroke-linecap="round">
    <path d="M146 300a58 58 0 1 1 94 0"/>
    <path d="M390 300a58 58 0 1 1 94 0" opacity=".7"/>
    <path d="M634 300a58 58 0 1 1 94 0" opacity=".86"/>
  </g>
  <g fill="#f5f5f5" opacity=".85" font-family="Inter, Arial, sans-serif" font-size="21" font-weight="700">
    <text x="132" y="242">Licensing</text><text x="376" y="242">Banking</text><text x="620" y="242">Compliance</text>
    <text x="132" y="432">Operations Command</text><text x="620" y="432">VIP Desk</text>
  </g>
  <g stroke="#fff" stroke-opacity=".16" stroke-width="8" stroke-linecap="round">
    <path d="M136 474h330M136 512h260M136 550h360"/>
    <path d="M626 480h118M626 520h92"/>
  </g>
  <path d="M132 610c150-118 470-118 626 0" fill="none" stroke="url(#gold)" stroke-width="2" opacity=".7"/>
</svg>
