<svg xmlns="http://www.w3.org/2000/svg" viewBox="0 0 1200 760" role="img" aria-labelledby="title desc">
  <title id="title">UAE and Europe business network</title>
  <desc id="desc">An abstract premium map-style network connecting Dubai, Abu Dhabi, London, Paris, Amsterdam, and Zurich.</desc>
  <defs>
    <linearGradient id="bg" x1="0" x2="1" y1="0" y2="1">
      <stop offset="0" stop-color="#080808"/>
      <stop offset=".55" stop-color="#161616"/>
      <stop offset="1" stop-color="#23180a"/>
    </linearGradient>
    <radialGradient id="halo" cx="74%" cy="66%" r="48%">
      <stop offset="0" stop-color="#d2a64d" stop-opacity=".34"/>
      <stop offset="1" stop-color="#d2a64d" stop-opacity="0"/>
    </radialGradient>
  </defs>
  <rect width="1200" height="760" rx="36" fill="url(#bg)"/>
  <rect width="1200" height="760" rx="36" fill="url(#halo)"/>
  <g fill="none" stroke="#ffffff" stroke-opacity=".07">
    <path d="M100 170h1000M100 290h1000M100 410h1000M100 530h1000"/>
    <path d="M220 80v600M420 80v600M620 80v600M820 80v600M1020 80v600"/>
  </g>
  <g fill="#f3f3f3" opacity=".1">
    <path d="M165 230c52-60 130-82 210-68 55 9 94 40 147 52 62 15 120-1 183-4 66-3 132 12 181 58 37 34 61 81 64 132-69-25-132-39-205-25-58 12-109 45-168 54-89 13-164-32-245-56-64-19-124-18-187 4-29-49-23-103 20-147z"/>
    <path d="M710 486c42-38 110-58 168-43 66 17 112 69 159 116-58 5-113-11-169-21-56-10-104 7-158 21-19-21-19-50 0-73z"/>
  </g>
  <g stroke="#d6ad55" stroke-width="2" stroke-linecap="round" opacity=".78">
    <path d="M342 260C470 224 620 238 732 340S884 494 952 552"/>
    <path d="M342 260C462 330 584 402 725 414S872 442 952 552"/>
    <path d="M468 316C574 280 654 296 732 340"/>
    <path d="M612 486C704 430 820 438 952 552"/>
  </g>
  <g>
    <circle cx="342" cy="260" r="12" fill="#d6ad55"/>
    <circle cx="468" cy="316" r="9" fill="#f4f4f4"/>
    <circle cx="612" cy="486" r="9" fill="#f4f4f4"/>
    <circle cx="732" cy="340" r="12" fill="#d6ad55"/>
    <circle cx="725" cy="414" r="8" fill="#f4f4f4"/>
    <circle cx="952" cy="552" r="15" fill="#d6ad55"/>
  </g>
  <g font-family="Inter, Arial, sans-serif" font-size="26" fill="#f7f7f7" font-weight="600">
    <text x="286" y="226">London</text>
    <text x="485" y="300">Paris</text>
    <text x="516" y="535">Zurich</text>
    <text x="748" y="326">Amsterdam</text>
    <text x="965" y="543">Dubai</text>
  </g>
  <g stroke="#f1f1f1" stroke-opacity=".2" stroke-width="1.5">
    <path d="M120 642h960"/>
    <path d="M160 620h54v22h-54zM240 590h42v52h-42zM306 610h50v32h-50zM930 560h44v82h-44zM998 502h52v140h-52zM1075 586h38v56h-38z"/>
  </g>
</svg>
