<svg xmlns="http://www.w3.org/2000/svg" viewBox="0 0 1400 900" role="img" aria-labelledby="title desc">
  <title id="title">Luxury international business boardroom</title>
  <desc id="desc">A dark premium boardroom overlooking a stylized UAE and European city skyline.</desc>
  <defs>
    <linearGradient id="sky" x1="0" x2="1" y1="0" y2="1">
      <stop offset="0" stop-color="#070707"/>
      <stop offset=".58" stop-color="#111114"/>
      <stop offset="1" stop-color="#241b0c"/>
    </linearGradient>
    <radialGradient id="goldGlow" cx="72%" cy="18%" r="42%">
      <stop offset="0" stop-color="#d6ad55" stop-opacity=".42"/>
      <stop offset=".45" stop-color="#d6ad55" stop-opacity=".11"/>
      <stop offset="1" stop-color="#d6ad55" stop-opacity="0"/>
    </radialGradient>
    <linearGradient id="table" x1="0" x2="1">
      <stop offset="0" stop-color="#0a0a0b"/>
      <stop offset=".5" stop-color="#1b1711"/>
      <stop offset="1" stop-color="#060606"/>
    </linearGradient>
    <linearGradient id="glass" x1="0" x2="0" y1="0" y2="1">
      <stop offset="0" stop-color="#ffffff" stop-opacity=".18"/>
      <stop offset="1" stop-color="#ffffff" stop-opacity=".02"/>
    </linearGradient>
  </defs>
  <rect width="1400" height="900" fill="url(#sky)"/>
  <rect width="1400" height="900" fill="url(#goldGlow)"/>
  <g opacity=".22" stroke="#f3d58a" stroke-width="1">
    <path d="M125 160H1275M150 220H1250M170 280H1230M200 340H1200"/>
    <path d="M280 98V430M520 82V430M760 70V430M1000 92V430M1220 118V430"/>
  </g>
  <g fill="#050505">
    <path d="M0 430h1400v470H0z"/>
    <path d="M60 405h65v25h-65zM150 350h58v80h-58zM235 380h48v50h-48zM318 305h82v125h-82zM432 370h46v60h-46zM515 330h60v100h-60zM616 250h42v180h-42zM694 378h58v52h-58zM790 280h54v150h-54zM875 332h92v98h-92zM1000 235h48v195h-48zM1083 370h54v60h-54zM1175 310h78v120h-78zM1286 355h58v75h-58z"/>
  </g>
  <g fill="#d6ad55" opacity=".56">
    <circle cx="183" cy="374" r="3"/><circle cx="184" cy="392" r="3"/><circle cx="348" cy="335" r="3"/><circle cx="372" cy="335" r="3"/>
    <circle cx="538" cy="356" r="3"/><circle cx="555" cy="382" r="3"/><circle cx="630" cy="294" r="3"/><circle cx="638" cy="342" r="3"/>
    <circle cx="812" cy="319" r="3"/><circle cx="828" cy="360" r="3"/><circle cx="919" cy="363" r="3"/><circle cx="944" cy="390" r="3"/>
    <circle cx="1024" cy="286" r="3"/><circle cx="1024" cy="337" r="3"/><circle cx="1212" cy="347" r="3"/><circle cx="1235" cy="390" r="3"/>
  </g>
  <path d="M146 570C300 488 1120 488 1262 570l89 330H50l96-330z" fill="url(#table)"/>
  <path d="M180 596c178-54 860-54 1040 0" fill="none" stroke="#d6ad55" stroke-opacity=".36" stroke-width="4"/>
  <g opacity=".9">
    <rect x="432" y="550" width="140" height="82" rx="8" fill="#0d0d0f" stroke="#c9a24c" stroke-opacity=".58"/>
    <rect x="802" y="550" width="140" height="82" rx="8" fill="#0d0d0f" stroke="#c9a24c" stroke-opacity=".58"/>
    <path d="M456 590h92M826 590h92" stroke="#f5f5f5" stroke-opacity=".5" stroke-width="3"/>
    <path d="M476 606h52M846 606h52" stroke="#d6ad55" stroke-opacity=".65" stroke-width="3"/>
  </g>
  <g stroke="#c7c7c7" stroke-opacity=".36" fill="url(#glass)">
    <rect x="96" y="86" width="1208" height="348" rx="16"/>
    <path d="M336 86v348M578 86v348M820 86v348M1062 86v348"/>
  </g>
</svg>
