<svg xmlns="http://www.w3.org/2000/svg" viewBox="0 0 1920 1080" role="img" aria-label="MSTRY global management network poster">
  <defs>
    <radialGradient id="bg" cx="52%" cy="43%" r="68%">
      <stop offset="0" stop-color="#172033"/>
      <stop offset=".42" stop-color="#0a0a0a"/>
      <stop offset="1" stop-color="#050505"/>
    </radialGradient>
    <radialGradient id="goldGlow" cx="50%" cy="50%" r="50%">
      <stop offset="0" stop-color="#d4af37" stop-opacity=".42"/>
      <stop offset=".42" stop-color="#d4af37" stop-opacity=".1"/>
      <stop offset="1" stop-color="#d4af37" stop-opacity="0"/>
    </radialGradient>
    <linearGradient id="route" x1="0" x2="1" y1="0" y2="1">
      <stop offset="0" stop-color="#d4af37" stop-opacity="0"/>
      <stop offset=".48" stop-color="#e6c35c" stop-opacity=".78"/>
      <stop offset="1" stop-color="#d4af37" stop-opacity="0"/>
    </linearGradient>
    <filter id="soft">
      <feGaussianBlur stdDeviation="16"/>
    </filter>
  </defs>
  <rect width="1920" height="1080" fill="url(#bg)"/>
  <g opacity=".18" stroke="#fff" stroke-width="1">
    <path d="M0 180H1920M0 360H1920M0 540H1920M0 720H1920M0 900H1920"/>
    <path d="M240 0V1080M480 0V1080M720 0V1080M960 0V1080M1200 0V1080M1440 0V1080M1680 0V1080"/>
  </g>
  <circle cx="960" cy="500" r="350" fill="url(#goldGlow)" filter="url(#soft)" opacity=".72"/>
  <g transform="translate(960 500)" fill="none">
    <circle r="300" stroke="#d4af37" stroke-opacity=".38" stroke-width="2.4"/>
    <circle r="250" stroke="#fff" stroke-opacity=".08"/>
    <ellipse rx="300" ry="92" stroke="#fff" stroke-opacity=".1"/>
    <ellipse rx="300" ry="180" stroke="#fff" stroke-opacity=".08"/>
    <ellipse rx="92" ry="300" stroke="#fff" stroke-opacity=".1"/>
    <ellipse rx="180" ry="300" stroke="#fff" stroke-opacity=".08"/>
    <path d="M-226-60C-168-136-54-168 42-132 142-94 224-20 268 72" stroke="#d4af37" stroke-opacity=".2" stroke-width="22" stroke-linecap="round"/>
    <path d="M-256 78C-190 30-102 26-18 62 78 102 154 132 244 90" stroke="#d4af37" stroke-opacity=".18" stroke-width="18" stroke-linecap="round"/>
  </g>
  <g fill="none" stroke="url(#route)" stroke-linecap="round" stroke-width="2.4">
    <path d="M520 474C710 270 1010 246 1240 414"/>
    <path d="M658 646C884 758 1168 718 1398 546"/>
    <path d="M760 350C900 468 1068 500 1238 448"/>
    <path d="M570 548C760 434 992 392 1320 634"/>
  </g>
  <g fill="#d4af37">
    <circle cx="520" cy="474" r="8"/>
    <circle cx="760" cy="350" r="8"/>
    <circle cx="960" cy="500" r="10"/>
    <circle cx="1240" cy="414" r="8"/>
    <circle cx="1398" cy="546" r="8"/>
    <circle cx="658" cy="646" r="8"/>
    <circle cx="1320" cy="634" r="8"/>
  </g>
  <rect x="0" y="0" width="1920" height="1080" fill="none" stroke="#d4af37" stroke-opacity=".06"/>
</svg>
